<svg xmlns="http://www.w3.org/2000/svg" xmlns:xlink="http://www.w3.org/1999/xlink" width="29" height="27" viewBox="0 0 29 27">
    <defs>
        <path id="pkid28udaa" d="M25.86 11.85l-.173.398V13.5c0 2.767-3.197 4.486-8.343 4.486-2.229 0-4.311.821-5.864 2.312-.88.845-1.544 1.862-1.965 2.986L2.52 19.14c5.3-.559 9.449-5.169 9.449-10.756V2.82c4.72.369 5.097 3.466 5.121 4.163l-.045 1.611 1.595.37 7.011 1.628.217.05H26.15c.048 0 .096.002.144.005-.092.33-.23.736-.433 1.205zM1.99 8.169l7.99-4.733v4.95c0 4.644-3.537 8.447-7.99 8.742V8.168zm24.16.432h-.06l-7.01-1.628S19.08.74 11.013.74h-.04c-.263 0-.527.061-.725.179L.736 6.554C.334 6.794 0 7.38 0 7.86V19.198h.006c.027.467.345 1.014.73 1.243l9.513 5.635c.198.123.462.179.725.184 0-1.802.712-3.363 1.865-4.471 1.154-1.108 2.745-1.76 4.505-1.76 7.026 0 10.332-2.926 10.332-6.529v-.817c.791-1.817.796-2.955.796-2.955 0-.862-1.477-1.128-2.322-1.128z"/>
    </defs>
    <g fill="none" fill-rule="evenodd">
        <g>
            <g>
                <g transform="translate(-50 -88) translate(43 35) translate(7 53)">
                    <use fill="#575755" xlink:href="#pkid28udaa"/>
                </g>
            </g>
        </g>
    </g>
</svg>
