<svg xmlns="http://www.w3.org/2000/svg" width="232" height="203" viewBox="0 0 232 203">
    <g fill="none" fill-rule="evenodd">
        <g>
            <g>
                <g>
                    <text fill="#FFF" font-family="Lato-Regular, Lato" font-size="15" transform="translate(-403 -6635) translate(0 6475) translate(403 160)">
                        <tspan x="49.485" y="200">42mm</tspan>
                    </text>
                    <g transform="translate(-403 -6635) translate(0 6475) translate(403 160)">
                        <rect width="17" height="9" x="66.5" y="130.5" stroke="#9A9A95" rx="2.5"/>
                        <rect width="17" height="4" x="66.5" y="130.5" stroke="#9A9A95" rx="2"/>
                        <circle cx="75" cy="75" r="74.5" stroke="#9A9A95"/>
                        <g fill="#535352">
                            <path d="M0 0H19V1H0z" transform="translate(160)"/>
                            <path d="M9 0H10V150H9z" transform="translate(160)"/>
                            <path d="M0 149H19V150H0z" transform="translate(160)"/>
                        </g>
                        <text fill="#FFF" font-family="Lato-Regular, Lato" font-size="15">
                            <tspan x="189.97" y="81">42mm</tspan>
                        </text>
                        <g fill="#535352">
                            <path d="M0 0H19V1H0z" transform="rotate(90 -2.5 153)"/>
                            <path d="M9 0H10V150H9z" transform="rotate(90 -2.5 153)"/>
                            <path d="M0 149H19V150H0z" transform="rotate(90 -2.5 153)"/>
                        </g>
                        <circle cx="31.5" cy="118.5" r="1" stroke="#9A9A95"/>
                        <circle cx="31.5" cy="31.5" r="1" stroke="#9A9A95"/>
                        <circle cx="118.5" cy="31.5" r="1" stroke="#9A9A95"/>
                        <circle cx="118.5" cy="118.5" r="1" stroke="#9A9A95"/>
                    </g>
                </g>
            </g>
        </g>
    </g>
</svg>
